<mxfile host="app.diagrams.net" modified="2022-07-10T13:23:20.210Z" agent="5.0 (Macintosh; Intel Mac OS X 10_15_7) AppleWebKit/537.36 (KHTML, like Gecko) Chrome/103.0.0.0 Safari/537.36" etag="WeD_4w24QZX59twlj2jr" version="20.0.4" type="github">
  <diagram id="bX5sPl4p7DwddH2O-ysd" name="Page-1">
    <mxGraphModel dx="1234" dy="793" grid="1" gridSize="10" guides="1" tooltips="1" connect="1" arrows="1" fold="1" page="1" pageScale="1" pageWidth="827" pageHeight="1169" math="0" shadow="0">
      <root>
        <mxCell id="0" />
        <mxCell id="1" parent="0" />
        <mxCell id="ZQvtZ0A3CkWybkyIGqYU-2" value="" style="rounded=0;whiteSpace=wrap;html=1;" vertex="1" parent="1">
          <mxGeometry x="40" y="170" width="170" height="210" as="geometry" />
        </mxCell>
        <mxCell id="ZQvtZ0A3CkWybkyIGqYU-11" style="edgeStyle=orthogonalEdgeStyle;rounded=0;orthogonalLoop=1;jettySize=auto;html=1;entryX=0;entryY=0.25;entryDx=0;entryDy=0;" edge="1" parent="1" source="ZQvtZ0A3CkWybkyIGqYU-1" target="ZQvtZ0A3CkWybkyIGqYU-5">
          <mxGeometry relative="1" as="geometry" />
        </mxCell>
        <mxCell id="ZQvtZ0A3CkWybkyIGqYU-1" value="Transfer" style="rounded=0;whiteSpace=wrap;html=1;fillColor=#d5e8d4;strokeColor=#82b366;" vertex="1" parent="1">
          <mxGeometry x="60" y="210" width="120" height="60" as="geometry" />
        </mxCell>
        <mxCell id="ZQvtZ0A3CkWybkyIGqYU-3" value="Home" style="text;html=1;align=center;verticalAlign=middle;resizable=0;points=[];autosize=1;strokeColor=none;fillColor=none;" vertex="1" parent="1">
          <mxGeometry x="40" y="170" width="60" height="30" as="geometry" />
        </mxCell>
        <mxCell id="ZQvtZ0A3CkWybkyIGqYU-19" style="edgeStyle=orthogonalEdgeStyle;rounded=0;orthogonalLoop=1;jettySize=auto;html=1;entryX=0.5;entryY=1;entryDx=0;entryDy=0;" edge="1" parent="1" source="ZQvtZ0A3CkWybkyIGqYU-4" target="ZQvtZ0A3CkWybkyIGqYU-13">
          <mxGeometry relative="1" as="geometry">
            <Array as="points">
              <mxPoint x="120" y="510" />
              <mxPoint x="630" y="510" />
            </Array>
          </mxGeometry>
        </mxCell>
        <mxCell id="ZQvtZ0A3CkWybkyIGqYU-4" value="Recent Recipient" style="rounded=0;whiteSpace=wrap;html=1;fillColor=#d5e8d4;strokeColor=#82b366;" vertex="1" parent="1">
          <mxGeometry x="60" y="290" width="120" height="60" as="geometry" />
        </mxCell>
        <mxCell id="ZQvtZ0A3CkWybkyIGqYU-5" value="" style="rounded=0;whiteSpace=wrap;html=1;" vertex="1" parent="1">
          <mxGeometry x="270" y="170" width="180" height="280" as="geometry" />
        </mxCell>
        <mxCell id="ZQvtZ0A3CkWybkyIGqYU-6" value="Transfer" style="text;html=1;align=center;verticalAlign=middle;resizable=0;points=[];autosize=1;strokeColor=none;fillColor=none;" vertex="1" parent="1">
          <mxGeometry x="270" y="170" width="70" height="30" as="geometry" />
        </mxCell>
        <mxCell id="ZQvtZ0A3CkWybkyIGqYU-7" value="Bank Account" style="rounded=0;whiteSpace=wrap;html=1;fillColor=#d5e8d4;strokeColor=#82b366;" vertex="1" parent="1">
          <mxGeometry x="300" y="200" width="120" height="60" as="geometry" />
        </mxCell>
        <mxCell id="ZQvtZ0A3CkWybkyIGqYU-8" value="PayNow" style="rounded=0;whiteSpace=wrap;html=1;fillColor=#d5e8d4;strokeColor=#82b366;" vertex="1" parent="1">
          <mxGeometry x="300" y="280" width="120" height="60" as="geometry" />
        </mxCell>
        <mxCell id="ZQvtZ0A3CkWybkyIGqYU-20" style="edgeStyle=orthogonalEdgeStyle;rounded=0;orthogonalLoop=1;jettySize=auto;html=1;entryX=0.5;entryY=1;entryDx=0;entryDy=0;" edge="1" parent="1" target="ZQvtZ0A3CkWybkyIGqYU-13">
          <mxGeometry relative="1" as="geometry">
            <mxPoint x="360" y="450" as="sourcePoint" />
            <Array as="points">
              <mxPoint x="360" y="510" />
              <mxPoint x="630" y="510" />
            </Array>
          </mxGeometry>
        </mxCell>
        <mxCell id="ZQvtZ0A3CkWybkyIGqYU-10" value="Recent Recipient" style="rounded=0;whiteSpace=wrap;html=1;fillColor=#d5e8d4;strokeColor=#82b366;" vertex="1" parent="1">
          <mxGeometry x="300" y="370" width="120" height="60" as="geometry" />
        </mxCell>
        <mxCell id="ZQvtZ0A3CkWybkyIGqYU-12" value="navigate" style="text;html=1;align=center;verticalAlign=middle;resizable=0;points=[];autosize=1;strokeColor=none;fillColor=none;" vertex="1" parent="1">
          <mxGeometry x="180" y="210" width="70" height="30" as="geometry" />
        </mxCell>
        <mxCell id="ZQvtZ0A3CkWybkyIGqYU-23" style="edgeStyle=orthogonalEdgeStyle;rounded=0;orthogonalLoop=1;jettySize=auto;html=1;entryX=0;entryY=0.5;entryDx=0;entryDy=0;" edge="1" parent="1" source="ZQvtZ0A3CkWybkyIGqYU-13" target="ZQvtZ0A3CkWybkyIGqYU-24">
          <mxGeometry relative="1" as="geometry">
            <mxPoint x="810" y="330" as="targetPoint" />
          </mxGeometry>
        </mxCell>
        <mxCell id="ZQvtZ0A3CkWybkyIGqYU-13" value="" style="rounded=0;whiteSpace=wrap;html=1;" vertex="1" parent="1">
          <mxGeometry x="540" y="170" width="180" height="320" as="geometry" />
        </mxCell>
        <mxCell id="ZQvtZ0A3CkWybkyIGqYU-14" value="Transfer Flow" style="text;html=1;align=center;verticalAlign=middle;resizable=0;points=[];autosize=1;strokeColor=none;fillColor=none;" vertex="1" parent="1">
          <mxGeometry x="530" y="170" width="100" height="30" as="geometry" />
        </mxCell>
        <mxCell id="ZQvtZ0A3CkWybkyIGqYU-16" value="&lt;span style=&quot;&quot;&gt;Other Bank&lt;/span&gt;" style="ellipse;whiteSpace=wrap;html=1;fontFamily=Helvetica;fontSize=12;align=center;strokeColor=#6c8ebf;fillColor=#dae8fc;" vertex="1" parent="1">
          <mxGeometry x="570" y="220" width="120" height="60" as="geometry" />
        </mxCell>
        <mxCell id="ZQvtZ0A3CkWybkyIGqYU-17" value="&lt;span style=&quot;&quot;&gt;Maribank&lt;/span&gt;" style="ellipse;whiteSpace=wrap;html=1;fontFamily=Helvetica;fontSize=12;align=center;strokeColor=#6c8ebf;fillColor=#dae8fc;" vertex="1" parent="1">
          <mxGeometry x="570" y="300" width="120" height="60" as="geometry" />
        </mxCell>
        <mxCell id="ZQvtZ0A3CkWybkyIGqYU-18" value="&lt;span style=&quot;&quot;&gt;PayNow&lt;/span&gt;" style="ellipse;whiteSpace=wrap;html=1;fontFamily=Helvetica;fontSize=12;align=center;strokeColor=#6c8ebf;fillColor=#dae8fc;" vertex="1" parent="1">
          <mxGeometry x="570" y="380" width="120" height="60" as="geometry" />
        </mxCell>
        <mxCell id="ZQvtZ0A3CkWybkyIGqYU-26" style="edgeStyle=orthogonalEdgeStyle;rounded=0;orthogonalLoop=1;jettySize=auto;html=1;" edge="1" parent="1" source="ZQvtZ0A3CkWybkyIGqYU-24">
          <mxGeometry relative="1" as="geometry">
            <mxPoint x="1030" y="330" as="targetPoint" />
          </mxGeometry>
        </mxCell>
        <mxCell id="ZQvtZ0A3CkWybkyIGqYU-27" value="N" style="edgeLabel;html=1;align=center;verticalAlign=middle;resizable=0;points=[];" vertex="1" connectable="0" parent="ZQvtZ0A3CkWybkyIGqYU-26">
          <mxGeometry x="-0.2286" y="-2" relative="1" as="geometry">
            <mxPoint as="offset" />
          </mxGeometry>
        </mxCell>
        <mxCell id="ZQvtZ0A3CkWybkyIGqYU-33" style="edgeStyle=orthogonalEdgeStyle;rounded=0;orthogonalLoop=1;jettySize=auto;html=1;entryX=0.558;entryY=1.075;entryDx=0;entryDy=0;entryPerimeter=0;" edge="1" parent="1" source="ZQvtZ0A3CkWybkyIGqYU-24" target="ZQvtZ0A3CkWybkyIGqYU-28">
          <mxGeometry relative="1" as="geometry">
            <Array as="points">
              <mxPoint x="880" y="450" />
              <mxPoint x="1317" y="450" />
            </Array>
          </mxGeometry>
        </mxCell>
        <mxCell id="ZQvtZ0A3CkWybkyIGqYU-24" value="Has Transfer Recent" style="rhombus;whiteSpace=wrap;html=1;fillColor=#fff2cc;strokeColor=#d6b656;" vertex="1" parent="1">
          <mxGeometry x="820" y="283" width="120" height="95" as="geometry" />
        </mxCell>
        <mxCell id="ZQvtZ0A3CkWybkyIGqYU-37" value="" style="edgeStyle=orthogonalEdgeStyle;rounded=0;orthogonalLoop=1;jettySize=auto;html=1;" edge="1" parent="1" source="ZQvtZ0A3CkWybkyIGqYU-28" target="ZQvtZ0A3CkWybkyIGqYU-35">
          <mxGeometry relative="1" as="geometry" />
        </mxCell>
        <mxCell id="ZQvtZ0A3CkWybkyIGqYU-28" value="Transfer&amp;nbsp; Input Amount" style="rounded=0;whiteSpace=wrap;html=1;fillColor=#f8cecc;strokeColor=#b85450;" vertex="1" parent="1">
          <mxGeometry x="1250" y="300" width="120" height="60" as="geometry" />
        </mxCell>
        <mxCell id="ZQvtZ0A3CkWybkyIGqYU-30" value="" style="edgeStyle=orthogonalEdgeStyle;rounded=0;orthogonalLoop=1;jettySize=auto;html=1;" edge="1" parent="1" source="ZQvtZ0A3CkWybkyIGqYU-29" target="ZQvtZ0A3CkWybkyIGqYU-28">
          <mxGeometry relative="1" as="geometry" />
        </mxCell>
        <mxCell id="ZQvtZ0A3CkWybkyIGqYU-29" value="New Transfer" style="rounded=0;whiteSpace=wrap;html=1;fillColor=#f8cecc;strokeColor=#b85450;" vertex="1" parent="1">
          <mxGeometry x="1030" y="300" width="120" height="60" as="geometry" />
        </mxCell>
        <mxCell id="ZQvtZ0A3CkWybkyIGqYU-31" value="input Share ID&lt;br&gt;&amp;nbsp;or Mobile" style="text;html=1;align=center;verticalAlign=middle;resizable=0;points=[];autosize=1;strokeColor=none;fillColor=none;" vertex="1" parent="1">
          <mxGeometry x="1150" y="310" width="100" height="40" as="geometry" />
        </mxCell>
        <mxCell id="ZQvtZ0A3CkWybkyIGqYU-34" value="Y" style="text;html=1;align=center;verticalAlign=middle;resizable=0;points=[];autosize=1;strokeColor=none;fillColor=none;" vertex="1" parent="1">
          <mxGeometry x="900" y="420" width="30" height="30" as="geometry" />
        </mxCell>
        <mxCell id="ZQvtZ0A3CkWybkyIGqYU-38" value="" style="edgeStyle=orthogonalEdgeStyle;rounded=0;orthogonalLoop=1;jettySize=auto;html=1;" edge="1" parent="1" source="ZQvtZ0A3CkWybkyIGqYU-35" target="ZQvtZ0A3CkWybkyIGqYU-36">
          <mxGeometry relative="1" as="geometry" />
        </mxCell>
        <mxCell id="ZQvtZ0A3CkWybkyIGqYU-35" value="Transfer Confirm" style="rounded=0;whiteSpace=wrap;html=1;fillColor=#f8cecc;strokeColor=#b85450;" vertex="1" parent="1">
          <mxGeometry x="1430" y="300" width="120" height="60" as="geometry" />
        </mxCell>
        <mxCell id="ZQvtZ0A3CkWybkyIGqYU-36" value="Transfer Result" style="rounded=0;whiteSpace=wrap;html=1;fillColor=#f8cecc;strokeColor=#b85450;" vertex="1" parent="1">
          <mxGeometry x="1430" y="420" width="120" height="60" as="geometry" />
        </mxCell>
      </root>
    </mxGraphModel>
  </diagram>
</mxfile>
